<svg xmlns="http://www.w3.org/2000/svg" version="1.1" width="7" height="7">
<rect x="0" y="0" width="1" height="1" fill="rgba(241, 16, 190, 1.00)"/>
<rect x="1" y="0" width="1" height="1" fill="rgba(241, 16, 190, 1.00)"/>
<rect x="2" y="0" width="1" height="1" fill="rgba(255, 220, 0, 1.00)"/>
<rect x="3" y="0" width="1" height="1" fill="rgba(255, 220, 0, 1.00)"/>
<rect x="4" y="0" width="1" height="1" fill="rgba(255, 220, 0, 1.00)"/>
<rect x="5" y="0" width="1" height="1" fill="rgba(241, 16, 190, 1.00)"/>
<rect x="6" y="0" width="1" height="1" fill="rgba(241, 16, 190, 1.00)"/>
<rect x="0" y="1" width="1" height="1" fill="rgba(241, 16, 190, 1.00)"/>
<rect x="1" y="1" width="1" height="1" fill="rgba(4, 116, 217, 1.00)"/>
<rect x="2" y="1" width="1" height="1" fill="rgba(4, 116, 217, 1.00)"/>
<rect x="3" y="1" width="1" height="1" fill="rgba(255, 220, 0, 1.00)"/>
<rect x="4" y="1" width="1" height="1" fill="rgba(4, 116, 217, 1.00)"/>
<rect x="5" y="1" width="1" height="1" fill="rgba(4, 116, 217, 1.00)"/>
<rect x="6" y="1" width="1" height="1" fill="rgba(241, 16, 190, 1.00)"/>
<rect x="0" y="2" width="1" height="1" fill="rgba(255, 220, 0, 1.00)"/>
<rect x="1" y="2" width="1" height="1" fill="rgba(4, 116, 217, 1.00)"/>
<rect x="2" y="2" width="1" height="1" fill="rgba(47, 204, 64, 1.00)"/>
<rect x="3" y="2" width="1" height="1" fill="rgba(47, 204, 64, 1.00)"/>
<rect x="4" y="2" width="1" height="1" fill="rgba(47, 204, 64, 1.00)"/>
<rect x="5" y="2" width="1" height="1" fill="rgba(4, 116, 217, 1.00)"/>
<rect x="6" y="2" width="1" height="1" fill="rgba(255, 220, 0, 1.00)"/>
<rect x="0" y="3" width="1" height="1" fill="rgba(255, 220, 0, 1.00)"/>
<rect x="1" y="3" width="1" height="1" fill="rgba(255, 220, 0, 1.00)"/>
<rect x="2" y="3" width="1" height="1" fill="rgba(47, 204, 64, 1.00)"/>
<rect x="3" y="3" width="1" height="1" fill="rgba(255, 220, 0, 1.00)"/>
<rect x="4" y="3" width="1" height="1" fill="rgba(47, 204, 64, 1.00)"/>
<rect x="5" y="3" width="1" height="1" fill="rgba(255, 220, 0, 1.00)"/>
<rect x="6" y="3" width="1" height="1" fill="rgba(255, 220, 0, 1.00)"/>
<rect x="0" y="4" width="1" height="1" fill="rgba(255, 220, 0, 1.00)"/>
<rect x="1" y="4" width="1" height="1" fill="rgba(4, 116, 217, 1.00)"/>
<rect x="2" y="4" width="1" height="1" fill="rgba(47, 204, 64, 1.00)"/>
<rect x="3" y="4" width="1" height="1" fill="rgba(47, 204, 64, 1.00)"/>
<rect x="4" y="4" width="1" height="1" fill="rgba(47, 204, 64, 1.00)"/>
<rect x="5" y="4" width="1" height="1" fill="rgba(4, 116, 217, 1.00)"/>
<rect x="6" y="4" width="1" height="1" fill="rgba(255, 220, 0, 1.00)"/>
<rect x="0" y="5" width="1" height="1" fill="rgba(241, 16, 190, 1.00)"/>
<rect x="1" y="5" width="1" height="1" fill="rgba(4, 116, 217, 1.00)"/>
<rect x="2" y="5" width="1" height="1" fill="rgba(4, 116, 217, 1.00)"/>
<rect x="3" y="5" width="1" height="1" fill="rgba(255, 220, 0, 1.00)"/>
<rect x="4" y="5" width="1" height="1" fill="rgba(4, 116, 217, 1.00)"/>
<rect x="5" y="5" width="1" height="1" fill="rgba(4, 116, 217, 1.00)"/>
<rect x="6" y="5" width="1" height="1" fill="rgba(241, 16, 190, 1.00)"/>
<rect x="0" y="6" width="1" height="1" fill="rgba(241, 16, 190, 1.00)"/>
<rect x="1" y="6" width="1" height="1" fill="rgba(241, 16, 190, 1.00)"/>
<rect x="2" y="6" width="1" height="1" fill="rgba(255, 220, 0, 1.00)"/>
<rect x="3" y="6" width="1" height="1" fill="rgba(255, 220, 0, 1.00)"/>
<rect x="4" y="6" width="1" height="1" fill="rgba(255, 220, 0, 1.00)"/>
<rect x="5" y="6" width="1" height="1" fill="rgba(241, 16, 190, 1.00)"/>
<rect x="6" y="6" width="1" height="1" fill="rgba(241, 16, 190, 1.00)"/>
</svg>
